<svg viewBox="0 0 97.1093978881836 25" xmlns="http://www.w3.org/2000/svg"  fill="none"><g clip-path="url(#tempo-logo-clip)"><path fill-rule="evenodd" clip-rule="evenodd" d="M5.02564 0C2.25005 0 0 2.23857 0 5V20C0 22.7614 2.25005 25 5.02564 25H20.1026C22.8781 25 25.1282 22.7614 25.1282 20V5C25.1282 2.23857 22.8781 0 20.1026 0H5.02564ZM18.9538 7.4405L20.1026 5.83335H5.02564L6.1745 7.4405H11.6931L11.681 20.3411L12.5014 21.4125L13.3219 20.3411L13.3339 7.4405H18.9538ZM9.76733 17.619L11.1347 19.2262V7.9762H6.55761L7.51504 9.3155H9.77316L9.76733 17.619ZM13.8693 19.2262L15.2313 17.619V9.3155H17.6135L18.5708 7.9762H13.8693V19.2262Z" fill="currentColor" /><path d="M36.4359 19.7504V7.36839H31.8203V5.40039H43.2149V7.36839H38.5994V19.7504H36.4359Z" fill="currentColor" /><path d="M48.0264 19.9343C44.7708 19.9343 42.6484 17.5563 42.6484 14.4813C42.6484 11.3653 44.7914 9.00781 48.0058 9.00781C51.1173 9.00781 53.0748 11.4473 53.0748 14.2353V15.1988H44.7296C44.9974 17.2078 46.3574 18.0893 48.0264 18.0893C49.716 18.0893 50.8082 17.0643 51.1379 16.1418L52.7245 16.9823C52.2712 18.1508 50.8288 19.9343 48.0264 19.9343ZM44.7914 13.4768H50.9319C50.9112 12.1648 49.7984 10.8118 47.9852 10.8118C46.4192 10.8118 45.1417 11.7343 44.7914 13.4768Z" fill="currentColor" /><path d="M55.2344 19.7498V9.19231H57.2949V10.5248C57.7894 9.60231 58.9021 9.00781 60.1796 9.00781C61.6014 9.00781 62.7552 9.66381 63.4558 10.6478C63.9916 9.95081 65.0424 9.00781 66.8557 9.00781C69.3077 9.00781 71.0385 10.7708 71.0385 12.9848V19.7498H68.978V13.4768C68.978 11.8983 67.9683 10.9348 66.5878 10.9348C65.166 10.9348 64.1564 11.9803 64.1564 13.4768V19.7498H62.0959V13.4768C62.0959 11.8983 61.1068 10.9348 59.7057 10.9348C58.2839 10.9348 57.2949 11.9803 57.2949 13.4768V19.7498H55.2344Z" fill="currentColor" /><path d="M73.508 24.4445V9.1925H75.5686V10.5455C76.2485 9.6435 77.526 9.008 79.1126 9.008C81.9974 9.008 84.2845 11.058 84.2845 14.4815C84.2845 17.659 82.0386 19.9345 79.1126 19.9345C77.526 19.9345 76.1867 19.258 75.5686 18.356V24.4445H73.508ZM75.5273 14.4815C75.5273 16.4085 76.8049 18.028 78.8654 18.028C80.9259 18.028 82.2034 16.429 82.2034 14.4815C82.2034 12.5135 80.9259 10.9145 78.8654 10.9145C76.8049 10.9145 75.5273 12.534 75.5273 14.4815Z" fill="currentColor" /><path d="M91.5254 19.9343C88.2698 19.9343 85.9414 17.6383 85.9414 14.4813C85.9414 11.3243 88.2904 9.00781 91.5254 9.00781C94.7604 9.00781 97.1094 11.3243 97.1094 14.4813C97.1094 17.6178 94.781 19.9343 91.5254 19.9343ZM88.0225 14.4813C88.0225 16.5723 89.5679 18.0483 91.5254 18.0483C93.5035 18.0483 95.0283 16.5723 95.0283 14.4813C95.0283 12.3903 93.5035 10.9143 91.5254 10.9143C89.5473 10.9143 88.0225 12.3903 88.0225 14.4813Z" fill="currentColor" /></g><defs><clipPath id="tempo-logo-clip"><rect width="98" height="25" fill="white" /></clipPath></defs></svg>